<svg xmlns="http://www.w3.org/2000/svg" viewBox="-7.0 -103.0 355.1 118.0" role="img" aria-label="Mentis">
  <path fill="#FFFFFF" d="M23.10 0L7 0L7-53.10L22.20-53.10L22.70-43.50L20.60-43.40Q21.80-46 23.65-48Q25.50-50 27.85-51.35Q30.20-52.70 32.75-53.40Q35.30-54.10 37.90-54.10Q41.80-54.10 45-52.90Q48.20-51.70 50.60-49.05Q53-46.40 54.40-41.90L51.90-42.10L52.70-43.70Q54-46.10 56.05-48.05Q58.10-50 60.60-51.35Q63.10-52.70 65.80-53.40Q68.50-54.10 71-54.10Q77.30-54.10 81.50-51.65Q85.70-49.20 87.85-44.30Q90-39.40 90-32.40L90 0L73.90 0L73.90-31.10Q73.90-34.30 73-36.40Q72.10-38.50 70.35-39.55Q68.60-40.60 66-40.60Q63.90-40.60 62.15-39.90Q60.40-39.20 59.15-38Q57.90-36.80 57.20-35.20Q56.50-33.60 56.50-31.60L56.50 0L40.40 0L40.40-31.20Q40.40-34.20 39.50-36.30Q38.60-38.40 36.80-39.50Q35-40.60 32.60-40.60Q30.50-40.60 28.75-39.90Q27-39.20 25.75-38Q24.50-36.80 23.80-35.20Q23.10-33.60 23.10-31.70L23.10 0M128.60 1Q119.80 1 113.30-2.55Q106.80-6.10 103.20-12.25Q99.60-18.40 99.60-26.30Q99.60-32.40 101.60-37.50Q103.60-42.60 107.20-46.35Q110.80-50.10 115.75-52.15Q120.70-54.20 126.60-54.20Q132.20-54.20 136.85-52.20Q141.50-50.20 144.90-46.60Q148.30-43 150.10-38.10Q151.90-33.20 151.70-27.40L151.60-23.10L109.30-23.10L107-32.10L138.60-32.10L136.90-30.20L136.90-32.20Q136.70-34.70 135.35-36.65Q134-38.60 131.80-39.70Q129.60-40.80 126.80-40.80Q122.90-40.80 120.15-39.25Q117.40-37.70 116-34.75Q114.60-31.80 114.60-27.50Q114.60-23.10 116.45-19.85Q118.30-16.60 121.85-14.80Q125.40-13 130.30-13Q133.70-13 136.35-14Q139-15 142.10-17.40L149.60-6.80Q146.50-4.10 143-2.40Q139.50-0.70 135.85 0.15Q132.20 1 128.60 1M161.90 0L161.90-53.10L177.10-53.10L177.60-42.30L174.40-41.10Q175.50-44.70 178.35-47.65Q181.20-50.60 185.20-52.40Q189.20-54.20 193.60-54.20Q199.60-54.20 203.70-51.75Q207.80-49.30 209.90-44.45Q212-39.60 212-32.60L212 0L195.90 0L195.90-31.30Q195.90-34.50 195-36.60Q194.10-38.70 192.25-39.75Q190.40-40.80 187.70-40.70Q185.60-40.70 183.80-40.05Q182-39.40 180.70-38.15Q179.40-36.90 178.65-35.30Q177.90-33.70 177.90-31.80L177.90 0L170 0Q167.20 0 165.20 0Q163.20 0 161.90 0M245.80 0L229.80 0L229.80-66.50L245.80-66.50L245.80 0M256.10-39.10L220.40-39.10L220.40-53.10L256.10-53.10L256.10-39.10M280.60 0L264.50 0L264.50-53.10L280.60-53.10L280.60 0M312 1Q304.20 1 298.25-1.50Q292.30-4 288.80-8.20L298.50-16.60Q301.60-13.50 305.50-12.05Q309.40-10.60 312.90-10.60Q314.30-10.60 315.40-10.90Q316.50-11.20 317.25-11.75Q318-12.30 318.40-13.05Q318.80-13.80 318.80-14.80Q318.80-16.80 317-17.90Q316.10-18.40 314-19.10Q311.90-19.80 308.60-20.70Q303.90-21.90 300.45-23.55Q297-25.20 294.80-27.40Q292.80-29.50 291.70-32.05Q290.60-34.60 290.60-37.80Q290.60-41.50 292.35-44.50Q294.10-47.50 297.05-49.70Q300-51.90 303.85-53.05Q307.70-54.20 311.80-54.20Q316.20-54.20 320.20-53.20Q324.20-52.20 327.65-50.40Q331.10-48.60 333.80-46.10L325.40-36.70Q323.60-38.40 321.35-39.75Q319.10-41.10 316.70-41.90Q314.30-42.70 312.30-42.70Q310.80-42.70 309.65-42.45Q308.50-42.20 307.70-41.65Q306.90-41.10 306.50-40.35Q306.10-39.60 306.10-38.60Q306.10-37.60 306.65-36.70Q307.20-35.80 308.20-35.20Q309.20-34.60 311.40-33.85Q313.60-33.10 317.40-32Q322.10-30.70 325.50-29.10Q328.90-27.50 330.90-25.30Q332.50-23.60 333.30-21.35Q334.10-19.10 334.10-16.50Q334.10-11.40 331.25-7.45Q328.40-3.50 323.40-1.25Q318.40 1 312 1"/>
  <path fill="#FFFFFF" stroke="#FFFFFF" stroke-width="2.5" stroke-linejoin="round" d="M272.55 -89Q275.59 -76.04 288.55 -73Q275.59 -69.96 272.55 -57Q269.51 -69.96 256.55 -73Q269.51 -76.04 272.55 -89Z"/>
</svg>
