<svg width="168" height="48" viewBox="0 0 168 48" fill="none" xmlns="http://www.w3.org/2000/svg">
<path d="M15.2737 31.8656C17.1103 30.0291 18.4436 28.4435 19.0295 26.8296C19.1237 26.5701 19.4109 26.4358 19.6704 26.5299C19.9299 26.6241 20.0643 26.9111 19.97 27.1707C19.7696 27.7228 19.495 28.2635 19.1607 28.8003C19.7184 28.4857 20.2749 28.2287 20.8318 28.0297C21.0918 27.9368 21.3775 28.0716 21.4706 28.3315C21.5635 28.5915 21.4282 28.878 21.1681 28.9709C19.5188 29.5601 17.8076 30.746 15.9808 32.5727C15.7856 32.768 15.469 32.768 15.2737 32.5727C15.0786 32.3775 15.0785 32.0608 15.2737 31.8656ZM21.1695 19.03C21.4292 19.1236 21.5641 19.4097 21.4706 19.6694C21.3771 19.9291 21.0908 20.0637 20.8311 19.9705C20.2801 19.7721 19.7637 19.5359 19.2595 19.2537C19.5415 19.7586 19.7755 20.2778 19.9714 20.8343C20.0629 21.0947 19.9259 21.38 19.6655 21.4717C19.4052 21.563 19.1198 21.4261 19.0282 21.1658C18.4455 19.5107 17.488 18.1948 15.6466 16.3535C15.4513 16.1582 15.4513 15.8416 15.6466 15.6464C15.8419 15.4513 16.1585 15.4512 16.3537 15.6464C18.1869 17.4795 19.5231 18.4371 21.1695 19.03ZM28.3276 26.5306C28.5867 26.4354 28.8745 26.5684 28.9698 26.8275C29.57 28.4589 30.5377 29.8303 32.3534 31.646C32.5486 31.8412 32.5485 32.1579 32.3534 32.3531C32.1581 32.5484 31.8415 32.5484 31.6463 32.3531C29.8149 30.5218 28.4769 29.5586 26.8319 28.9709C26.5718 28.878 26.4365 28.5915 26.5294 28.3315C26.6225 28.0716 26.9082 27.9368 27.1682 28.0297C27.7274 28.2295 28.2519 28.467 28.7633 28.7548C28.475 28.244 28.2334 27.7239 28.0306 27.1728C27.9353 26.9136 28.0684 26.6259 28.3276 26.5306ZM31.6463 15.6464C31.8415 15.4512 32.1581 15.4513 32.3534 15.6464C32.5487 15.8416 32.5487 16.1582 32.3534 16.3535C30.4614 18.2455 29.5474 19.4923 28.9725 21.1623C28.8827 21.4234 28.5983 21.5629 28.3372 21.4731C28.0761 21.3832 27.9373 21.0982 28.0272 20.8371C28.2138 20.2949 28.4341 19.7955 28.6977 19.3117C28.2139 19.5734 27.7112 19.792 27.1571 19.9753C26.895 20.062 26.612 19.9191 26.5253 19.657C26.4386 19.3949 26.5809 19.1126 26.8429 19.0258C28.5366 18.4654 29.7186 17.574 31.6463 15.6464Z" fill="#F7C400"/>
<path d="M15 23.9999C21.268 23.9999 23.9999 21.363 23.9999 15C23.9999 21.363 26.7129 23.9999 32.9999 23.9999C26.7129 23.9999 23.9999 26.7129 23.9999 32.9999C23.9999 26.7129 21.268 23.9999 15 23.9999Z" fill="#F7C400"/>
<path d="M58.1712 32.8846H52.7305V15.0761H57.8671L58.036 18.2957L57.3264 18.3292C57.5967 17.7479 57.9403 17.2337 58.3571 16.7865C58.7738 16.3393 59.2469 15.9648 59.7764 15.663C60.3058 15.3612 60.8578 15.132 61.4322 14.9755C62.0067 14.819 62.5868 14.7407 63.1726 14.7407C64.0512 14.7407 64.851 14.8749 65.5719 15.1432C66.2928 15.4115 66.9237 15.8419 67.4643 16.4344C68.005 17.0269 68.4331 17.8262 68.7485 18.8323L67.9037 18.7652L68.174 18.2286C68.4669 17.692 68.8442 17.2057 69.3061 16.7697C69.7679 16.3337 70.2805 15.9648 70.8437 15.663C71.4069 15.3612 71.9926 15.132 72.6009 14.9755C73.2092 14.819 73.795 14.7407 74.3582 14.7407C75.7775 14.7407 76.9603 15.0146 77.9065 15.5624C78.8527 16.1102 79.568 16.9318 80.0523 18.0274C80.5367 19.123 80.7789 20.4533 80.7789 22.0184V32.8846H75.3382V22.4544C75.3382 21.7389 75.2368 21.1464 75.034 20.6769C74.8313 20.2073 74.5328 19.8552 74.1385 19.6204C73.7443 19.3857 73.2543 19.2683 72.6685 19.2683C72.1954 19.2683 71.7617 19.3465 71.3675 19.5031C70.9732 19.6596 70.6353 19.872 70.3537 20.1403C70.0721 20.4086 69.8524 20.7216 69.6947 21.0793C69.537 21.4371 69.4582 21.8395 69.4582 22.2867V32.8846H64.0174V22.4208C64.0174 21.7501 63.9161 21.1799 63.7133 20.7104C63.5105 20.2409 63.2064 19.8831 62.8009 19.6372C62.3954 19.3913 61.9222 19.2683 61.3816 19.2683C60.9084 19.2683 60.4748 19.3465 60.0805 19.5031C59.6863 19.6596 59.3483 19.872 59.0667 20.1403C58.7851 20.4086 58.5654 20.7216 58.4077 21.0793C58.25 21.4371 58.1712 21.8283 58.1712 22.2531V32.8846ZM93.8231 33.22C91.8406 33.22 90.1171 32.8231 88.6527 32.0294C87.1884 31.2357 86.0507 30.1513 85.2396 28.7762C84.4286 27.4012 84.0231 25.8305 84.0231 24.0642C84.0231 22.7003 84.2484 21.4482 84.6989 20.308C85.1495 19.1677 85.7803 18.1783 86.5914 17.3399C87.4024 16.5014 88.3655 15.853 89.4807 15.3947C90.5959 14.9363 91.818 14.7072 93.1473 14.7072C94.4089 14.7072 95.5635 14.9308 96.6111 15.3779C97.6587 15.8251 98.5654 16.4511 99.3314 17.256C100.097 18.0609 100.683 19.0112 101.089 20.1067C101.494 21.2023 101.674 22.3985 101.629 23.6953L101.596 25.1374H87.301L86.5238 22.119H97.2025L96.628 22.7562V22.0855C96.5829 21.5265 96.4083 21.029 96.1042 20.593C95.8 20.157 95.4001 19.8161 94.9045 19.5701C94.4089 19.3242 93.8456 19.2012 93.2148 19.2012C92.3362 19.2012 91.5871 19.3745 90.9676 19.7211C90.348 20.0676 89.8806 20.5707 89.5652 21.2302C89.2498 21.8898 89.0921 22.7003 89.0921 23.6617C89.0921 24.6455 89.3004 25.5007 89.7172 26.2274C90.134 26.954 90.7423 27.5186 91.5421 27.921C92.3418 28.3235 93.2937 28.5247 94.3976 28.5247C95.1636 28.5247 95.8451 28.4129 96.4421 28.1893C97.0391 27.9657 97.6868 27.5856 98.3852 27.049L100.92 30.604C100.221 31.2077 99.4779 31.6996 98.6894 32.0797C97.9008 32.4598 97.0954 32.7449 96.2731 32.9349C95.4508 33.1249 94.6342 33.22 93.8231 33.22ZM105.076 32.8846V15.0761H110.213L110.382 18.6982L109.3 19.1006C109.548 18.2957 109.993 17.5635 110.635 16.9039C111.277 16.2443 112.049 15.7133 112.95 15.3108C113.851 14.9084 114.797 14.7072 115.789 14.7072C117.14 14.7072 118.278 14.9811 119.202 15.5288C120.126 16.0766 120.824 16.8927 121.297 17.9771C121.77 19.0615 122.007 20.3862 122.007 21.9513V32.8846H116.566V22.3873C116.566 21.6718 116.465 21.0793 116.262 20.6098C116.059 20.1403 115.749 19.7881 115.333 19.5534C114.916 19.3186 114.403 19.2124 113.795 19.2348C113.322 19.2348 112.883 19.3074 112.477 19.4527C112.072 19.5981 111.722 19.8105 111.429 20.09C111.137 20.3694 110.906 20.6881 110.737 21.0458C110.568 21.4035 110.483 21.7948 110.483 22.2196V32.8846H107.814C107.183 32.8846 106.642 32.8846 106.191 32.8846C105.741 32.8846 105.369 32.8846 105.076 32.8846ZM133.429 32.8846H128.022V10.582H133.429V32.8846ZM136.91 19.7714H124.845V15.0761H136.91V19.7714ZM145.189 32.8846H139.748V15.0761H145.189V32.8846ZM155.8 33.22C154.043 33.22 152.494 32.9405 151.153 32.3815C149.813 31.8226 148.748 31.0736 147.96 30.1345L151.238 27.3173C151.936 28.0104 152.725 28.5191 153.603 28.8433C154.482 29.1675 155.316 29.3296 156.104 29.3296C156.42 29.3296 156.701 29.2961 156.949 29.229C157.197 29.1619 157.405 29.0669 157.574 28.9439C157.743 28.8209 157.873 28.6756 157.963 28.5079C158.053 28.3402 158.098 28.1446 158.098 27.921C158.098 27.4738 157.895 27.1273 157.49 26.8813C157.287 26.7696 156.949 26.6354 156.476 26.4789C156.003 26.3224 155.395 26.1435 154.651 25.9423C153.592 25.674 152.674 25.3554 151.897 24.9865C151.12 24.6176 150.483 24.1872 149.988 23.6953C149.537 23.2257 149.188 22.7059 148.94 22.1358C148.692 21.5656 148.568 20.9228 148.568 20.2073C148.568 19.3801 148.765 18.6311 149.16 17.9603C149.554 17.2896 150.083 16.7082 150.748 16.2164C151.413 15.7245 152.179 15.35 153.046 15.0929C153.913 14.8357 154.809 14.7072 155.732 14.7072C156.724 14.7072 157.67 14.819 158.571 15.0425C159.472 15.2661 160.311 15.5791 161.089 15.9816C161.866 16.3841 162.559 16.8648 163.167 17.4237L160.328 20.5763C159.923 20.1962 159.467 19.8552 158.96 19.5534C158.453 19.2515 157.929 19.0112 157.388 18.8323C156.848 18.6534 156.352 18.564 155.901 18.564C155.563 18.564 155.265 18.5919 155.006 18.6478C154.747 18.7037 154.527 18.7932 154.347 18.9161C154.167 19.0391 154.032 19.1844 153.941 19.3521C153.851 19.5198 153.806 19.7155 153.806 19.939C153.806 20.1626 153.868 20.375 153.992 20.5763C154.116 20.7775 154.291 20.9452 154.516 21.0793C154.741 21.2135 155.102 21.3644 155.597 21.5321C156.093 21.6998 156.769 21.9066 157.625 22.1525C158.684 22.4432 159.596 22.7674 160.362 23.1251C161.128 23.4829 161.736 23.9077 162.187 24.3996C162.547 24.7797 162.818 25.2212 162.998 25.7243C163.178 26.2274 163.268 26.7696 163.268 27.3509C163.268 28.4912 162.947 29.5029 162.305 30.386C161.663 31.2692 160.779 31.9623 159.652 32.4654C158.526 32.9684 157.242 33.22 155.8 33.22Z" fill="#F7C400"/>
</svg>
