<svg width="492" height="145" viewBox="0 0 492 145" fill="none" xmlns="http://www.w3.org/2000/svg"><title>Sciences</title><rect y="7.15256e-06" width="492" height="144.706" rx="53.8435" fill="#E0E8FF"/><path d="M195.877 76.1027C195.877 78.505 195.339 80.7209 194.262 82.7504C193.185 84.7384 191.508 86.3123 189.23 87.4721C186.993 88.6318 184.073 89.2117 180.47 89.2117L180.47 84.0552C183.079 84.0551 185.129 83.4131 186.62 82.1292C188.153 80.8038 188.919 78.9399 188.919 76.5377C188.919 75.0881 188.526 73.9284 187.739 73.0586C186.952 72.1474 185.875 71.4226 184.508 70.8842C183.141 70.3457 181.526 69.8902 179.662 69.5174C176.266 68.8548 173.656 67.5501 171.834 65.6035C170.012 63.6154 169.1 61.0682 169.1 57.9619C169.1 56.1395 169.432 54.5242 170.094 53.1159C170.798 51.7077 171.71 50.5273 172.828 49.5747C173.988 48.5806 175.23 47.8351 176.556 47.338C177.881 46.841 179.186 46.5925 180.47 46.5925L181.339 51.5626C179.517 51.5627 178.047 52.1425 176.928 53.3023C175.851 54.462 175.313 55.8702 175.313 57.5269C175.313 58.6038 175.52 59.5978 175.934 60.509C176.349 61.3788 176.991 62.1036 177.86 62.6834C178.772 63.2219 179.931 63.6153 181.339 63.8638C186.393 64.6921 190.079 66.121 192.398 68.1505C194.718 70.1385 195.877 72.7893 195.877 76.1027ZM181.339 51.5626L180.47 46.5925C182.789 46.5925 184.901 46.8824 186.807 47.4622C188.753 48.0006 190.493 48.6633 192.025 49.4502L190.224 53.9234C188.608 53.2193 187.096 52.6602 185.688 52.246C184.321 51.7904 182.872 51.5626 181.339 51.5626ZM180.47 84.0552L180.47 89.2117C178.192 89.2117 176.1 88.9218 174.195 88.342C172.29 87.7207 170.55 87.0374 168.976 86.2919L170.778 81.6323C172.393 82.3364 173.967 82.9162 175.5 83.3718C177.074 83.8274 178.73 84.0552 180.47 84.0552ZM174.257 79.0851L174.257 86.2918L168.976 86.2919L170.53 79.0851L174.257 79.0851ZM186.744 56.7191L186.744 49.4503L192.025 49.4502L190.348 56.7191L186.744 56.7191ZM215.987 51.6244C213.792 51.6244 211.949 52.0594 210.458 52.9291C208.967 53.7989 207.766 55.0001 206.855 56.5326C205.985 58.065 205.343 59.8046 204.929 61.7513C204.556 63.6979 204.37 65.7481 204.37 67.9019L197.412 67.9019C197.412 65.0855 197.743 62.414 198.405 59.8875C199.068 57.3196 200.124 55.0416 201.574 53.0535C203.065 51.0654 204.991 49.5122 207.352 48.3939C209.712 47.2342 212.591 46.6543 215.987 46.6542C218.307 46.6542 220.419 46.9441 222.324 47.524C224.271 48.1038 226.011 48.7665 227.543 49.512L225.741 53.9852C224.126 53.3225 222.531 52.7634 220.958 52.3078C219.425 51.8522 217.768 51.6244 215.987 51.6244ZM215.988 84.1791C217.769 84.179 219.425 83.9719 220.958 83.5577C222.532 83.1021 224.126 82.5222 225.742 81.8181L227.543 86.2913C226.011 87.0368 224.271 87.7202 222.325 88.3415C220.42 88.9214 218.307 89.2113 215.988 89.2114C212.591 89.2114 209.713 88.6316 207.352 87.4719C204.991 86.3122 203.065 84.7383 201.574 82.7503C200.125 80.7622 199.068 78.4842 198.406 75.9163C197.743 73.3484 197.412 70.6769 197.412 67.9019L204.37 67.9019C204.37 70.0556 204.556 72.1058 204.929 74.0524C205.343 75.9991 205.985 77.7386 206.855 79.2711C207.766 80.8036 208.967 82.0047 210.458 82.8744C211.949 83.7442 213.793 84.1791 215.988 84.1791ZM222.262 56.7809L222.262 49.512L227.543 49.512L225.866 56.7809L222.262 56.7809ZM222.263 79.0846L225.866 79.0845L227.543 86.2913L222.263 86.2913L222.263 79.0846ZM233.145 88.5899L233.144 47.1511L239.543 47.151L239.544 88.5898L233.145 88.5899ZM228.795 47.1511L233.765 47.1511L234.387 52.5561L228.795 51.0651L228.795 47.1511ZM228.796 88.59L228.796 84.6759L234.387 83.3091L233.766 88.5899L228.796 88.59ZM238.922 88.5899L238.053 83.1848L243.893 84.6758L243.893 88.5898L238.922 88.5899ZM237.866 52.5561L238.922 47.151L243.892 47.151L243.892 51.065L237.866 52.5561ZM250.134 47.1509L275.42 47.1507L275.42 52.5557L256.534 52.5559L256.534 64.4843L271.444 64.4842L271.444 69.8271L256.534 69.8273L256.534 83.1846L275.358 83.1844L275.359 88.5895L250.135 88.5897L250.134 47.1509ZM245.786 47.151L250.756 47.1509L251.377 52.556L245.786 51.065L245.786 47.151ZM245.786 88.5898L245.786 84.6758L251.377 83.3089L250.756 88.5897L245.786 88.5898ZM275.358 78.8355L275.359 88.5895L269.456 88.5895L271.631 78.8356L275.358 78.8355ZM275.42 56.9046L271.444 56.9047L269.27 47.1507L275.42 47.1507L275.42 56.9046ZM271.444 60.1353L271.444 69.8271L265.542 69.8272L267.717 60.1353L271.444 60.1353ZM271.444 74.176L267.53 74.1761L265.356 64.4842L271.444 64.4842L271.444 74.176ZM287.465 57.4636L287.466 88.5894L281.626 88.5894L281.625 47.1506L288.273 47.1505L305.607 78.3382L305.606 47.1504L311.384 47.1503L311.385 88.5891L304.737 88.5892L287.465 57.4636ZM277.276 47.1506L282.246 47.1506L282.868 52.5556L277.276 51.0647L277.276 47.1506ZM301.257 47.1504L306.228 47.1503L306.787 52.5554L301.257 51.0644L301.257 47.1504ZM277.277 88.5895L277.277 84.6755L282.868 83.3086L282.247 88.5894L277.277 88.5895ZM286.844 88.5894L285.974 83.1843L291.814 84.6753L291.814 88.5893L286.844 88.5894ZM309.769 52.5554L310.763 47.1503L315.733 47.1503L315.733 51.0643L309.769 52.5554ZM335.58 51.6232C333.385 51.6232 331.541 52.0581 330.05 52.9279C328.559 53.7977 327.358 54.9989 326.447 56.5313C325.577 58.0638 324.935 59.8034 324.521 61.75C324.148 63.6967 323.962 65.7469 323.962 67.9006L317.004 67.9007C317.004 65.0843 317.335 62.4128 317.998 59.8863C318.661 57.3184 319.717 55.0404 321.166 53.0523C322.657 51.0642 324.583 49.511 326.944 48.3927C329.305 47.233 332.183 46.6531 335.58 46.653C337.899 46.653 340.011 46.9429 341.917 47.5228C343.863 48.1026 345.603 48.7653 347.135 49.5108L345.334 53.9839C343.718 53.3213 342.124 52.7621 340.55 52.3066C339.017 51.851 337.361 51.6232 335.58 51.6232ZM335.58 84.1778C337.361 84.1778 339.018 83.9707 340.55 83.5565C342.124 83.1009 343.719 82.521 345.334 81.8169L347.136 86.2901C345.603 87.0356 343.864 87.719 341.917 88.3403C340.012 88.9202 337.9 89.2101 335.58 89.2101C332.184 89.2102 329.305 88.6304 326.944 87.4707C324.584 86.311 322.658 84.7371 321.167 82.7491C319.717 80.761 318.661 78.483 317.998 75.9151C317.335 73.3472 317.004 70.6757 317.004 67.9007L323.962 67.9006C323.962 70.0544 324.149 72.1046 324.521 74.0512C324.936 75.9979 325.578 77.7374 326.447 79.2699C327.359 80.8024 328.56 82.0035 330.051 82.8732C331.542 83.743 333.385 84.1779 335.58 84.1778ZM341.855 56.7797L341.855 49.5108L347.135 49.5108L345.458 56.7797L341.855 56.7797ZM341.855 79.0834L345.458 79.0833L347.136 86.2901L341.855 86.2901L341.855 79.0834ZM352.737 47.1499L378.022 47.1496L378.022 52.5547L359.136 52.5549L359.136 64.4833L374.046 64.4831L374.046 69.8261L359.136 69.8262L359.136 83.1836L377.96 83.1834L377.961 88.5884L352.737 88.5887L352.737 47.1499ZM348.388 47.1499L353.358 47.1499L353.979 52.5549L348.388 51.0639L348.388 47.1499ZM348.388 88.5887L348.388 84.6747L353.979 83.3079L353.358 88.5887L348.388 88.5887ZM377.96 78.8345L377.961 88.5884L372.058 88.5885L374.233 78.8345L377.96 78.8345ZM378.022 56.9036L374.046 56.9036L371.872 47.1497L378.022 47.1496L378.022 56.9036ZM374.046 60.1342L374.046 69.8261L368.144 69.8261L370.319 60.1343L374.046 60.1342ZM374.046 74.175L370.132 74.175L367.958 64.4832L374.046 64.4831L374.046 74.175ZM407.09 76.1006C407.09 78.5028 406.552 80.7187 405.475 82.7482C404.398 84.7363 402.721 86.3102 400.443 87.4699C398.206 88.6297 395.286 89.2095 391.683 89.2096L391.683 84.053C394.292 84.053 396.342 83.411 397.833 82.127C399.366 80.8016 400.132 78.9378 400.132 76.5355C400.132 75.0859 399.739 73.9262 398.952 73.0564C398.165 72.1452 397.088 71.4204 395.721 70.882C394.354 70.3436 392.739 69.888 390.875 69.5153C387.479 68.8526 384.869 67.548 383.047 65.6013C381.225 63.6133 380.313 61.0661 380.313 57.9597C380.313 56.1373 380.645 54.522 381.307 53.1138C382.011 51.7056 382.923 50.5251 384.041 49.5725C385.201 48.5785 386.443 47.8329 387.768 47.3359C389.094 46.8389 390.399 46.5904 391.682 46.5903L392.552 51.5605C390.73 51.5605 389.26 52.1404 388.141 53.3001C387.064 54.4598 386.526 55.868 386.526 57.5248C386.526 58.6016 386.733 59.5957 387.147 60.5069C387.562 61.3766 388.204 62.1015 389.073 62.6813C389.984 63.2197 391.144 63.6132 392.552 63.8617C397.605 64.69 401.292 66.1189 403.611 68.1483C405.931 70.1364 407.09 72.7871 407.09 76.1006ZM392.552 51.5605L391.682 46.5903C394.002 46.5903 396.114 46.8802 398.019 47.4601C399.966 47.9985 401.706 48.6611 403.238 49.4481L401.437 53.9212C399.821 53.2172 398.309 52.658 396.901 52.2439C395.534 51.7883 394.085 51.5605 392.552 51.5605ZM391.683 84.053L391.683 89.2096C389.405 89.2096 387.313 88.9197 385.408 88.3399C383.503 87.7186 381.763 87.0352 380.189 86.2897L381.991 81.6302C383.606 82.3343 385.18 82.9141 386.713 83.3697C388.287 83.8253 389.943 84.053 391.683 84.053ZM385.47 79.0829L385.47 86.2897L380.189 86.2897L381.742 79.0829L385.47 79.0829ZM397.957 56.717L397.957 49.4481L403.238 49.4481L401.561 56.717L397.957 56.717Z" fill="#250313"/><path d="M132.646 72.3528C132.646 116.815 116.821 132.647 72.3582 132.647C27.8957 132.647 12.0581 116.822 12.0581 72.3599C12.0581 27.8975 27.8819 12.0587 72.3444 12.0587C116.807 12.0587 132.646 27.8904 132.646 72.3528Z" fill="#8CAAFF"/><path d="M47.9236 107.406C44.3821 107.56 41.791 106.084 40.1502 102.979C38.5088 99.8727 38.7465 96.9175 40.8634 94.1132L60.6276 67.805L59.6711 45.8403L56.5807 45.9749C55.3701 46.0276 54.3304 45.6558 53.4615 44.8595C52.592 44.0626 52.1309 43.0588 52.0782 41.8482C52.0255 40.6375 52.3976 39.5975 53.1945 38.728C53.9908 37.8592 54.9943 37.3984 56.2049 37.3457L86.686 36.0182C87.8966 35.9655 88.9363 36.3373 89.8051 37.1336C90.6746 37.9306 91.1358 38.9343 91.1885 40.1449C91.2412 41.3556 90.8691 42.3956 90.0722 43.2651C89.2759 44.134 88.2724 44.5947 87.0618 44.6475L83.9714 44.782L84.9279 66.7467L106.904 91.2371C109.257 93.8468 109.751 96.7702 108.386 100.007C107.021 103.244 104.568 104.939 101.026 105.093L47.9236 107.406ZM55.5586 94.6275L92.3096 93.0271L79.2303 78.941L67.3637 79.4577L55.5586 94.6275ZM48.1376 98.751L100.061 96.4898L76.4311 70.1636L75.3421 45.1578L68.3003 45.4645L69.3893 70.4703L48.1376 98.751Z" fill="#250313"/></svg>